<svg width="27" height="27" viewBox="0 0 27 27" fill="none" xmlns="http://www.w3.org/2000/svg">
<path id="Icon color" fill-rule="evenodd" clip-rule="evenodd" d="M20.8086 18.6821L26.8075 24.6882C27.0754 24.9861 27.0622 25.4423 26.7775 25.7242L25.7277 26.7753C25.5869 26.9174 25.3952 26.9974 25.1953 26.9974C24.9953 26.9974 24.8037 26.9174 24.6629 26.7753L18.664 20.7692C18.4981 20.6029 18.3475 20.422 18.2141 20.2286L17.0893 18.7271C15.2282 20.215 12.9171 21.0251 10.5355 21.0244C5.62785 21.0415 1.36328 17.652 0.266542 12.8627C-0.830192 8.07333 1.53362 3.16233 5.95852 1.03712C10.3834 -1.08809 15.6885 0.139685 18.733 3.99357C21.7774 7.84745 21.7488 13.2989 18.664 17.1205L20.1637 18.1565C20.3979 18.3066 20.6143 18.4829 20.8086 18.6821ZM3.03678 10.5137C3.03678 14.6601 6.39402 18.0214 10.5354 18.0214C12.5241 18.0214 14.4314 17.2304 15.8377 15.8224C17.2439 14.4145 18.034 12.5049 18.034 10.5137C18.034 6.36739 14.6767 3.00611 10.5354 3.00611C6.39402 3.00611 3.03678 6.36739 3.03678 10.5137Z" fill="#07484A"/>
</svg>
