<svg width="26" height="26" viewBox="0 0 26 26" fill="none" xmlns="http://www.w3.org/2000/svg">
<path id="Icon color" fill-rule="evenodd" clip-rule="evenodd" d="M13 -0.00244141C5.8203 -0.00244141 0 5.81786 0 12.9976C0 20.1773 5.8203 25.9976 13 25.9976C20.1797 25.9976 26 20.1773 26 12.9976C26 9.54974 24.6304 6.24314 22.1924 3.80517C19.7544 1.3672 16.4478 -0.00244141 13 -0.00244141ZM13 3.89751C15.1539 3.89751 16.9 5.6436 16.9 7.79751C16.9 9.95142 15.1539 11.6975 13 11.6975C10.8461 11.6975 9.1 9.95142 9.1 7.79751C9.1 5.6436 10.8461 3.89751 13 3.89751ZM12.9997 22.0804C15.8793 22.0804 18.589 20.7175 20.3057 18.4056C20.5718 18.0167 20.6066 17.5144 20.3967 17.0926L20.0977 16.4816C19.4436 15.1466 18.0874 14.2996 16.6007 14.2976H9.39875C7.89091 14.2992 6.51909 15.1699 5.87575 16.5336L5.60275 17.1056C5.39801 17.5239 5.43273 18.0198 5.69375 18.4056C7.41048 20.7175 10.1202 22.0804 12.9997 22.0804Z" fill="#07484A"/>
</svg>
